<?xml version="1.0" encoding="UTF-8"?>
<svg id="Layer_1" data-name="Layer 1" xmlns="http://www.w3.org/2000/svg" viewBox="0 0 878.58 879.21">
  <defs>
    <style>
      .cls-1 {
        fill: #3d3c83;
      }

      .cls-2 {
        fill: #fafafb;
      }

      .cls-3 {
        fill: #fbfbfc;
      }

      .cls-4 {
        fill: #f6f7f9;
      }
    </style>
  </defs>
  <path class="cls-1" d="M692.15,877.77c-138.95.03-277.9-.02-416.85,0-38.26.01-76.52,0-114.78,0-45.59,2.28-95.46-1.33-126.81-38.95C-7.19,799.08,1.4,740.28.89,688.52c-.02-68.07,0-136.14.01-204.2.02-83.25-.03-166.49-.01-249.73C1.62,149.19-17.03,36.32,85.79,6.74,133.6-5.54,184.56,3.68,233.56.97c123.25.01,246.5.01,369.75,0,166.79,1.71,286.66-32.34,274.25,188.28,0,175.65,0,351.31-.01,526.96,11.03,129.54-67.32,171.69-185.4,161.56Z"/>
  <rect class="cls-4" x="424.45" y="170.22" width="29.67" height="46.21" rx="12" ry="12"/>
  <rect class="cls-4" x="424.45" y="653.28" width="29.67" height="46.21" rx="12" ry="12"/>
  <path class="cls-3" d="M799.54,460.15h-26.98s0,0,0,0c-2.32,37.69-10.9,74.29-25.61,109.07-16.82,39.76-40.89,75.47-71.55,106.13-30.66,30.66-66.37,54.73-106.13,71.55-41.18,17.42-84.91,26.25-129.98,26.25s-88.8-8.83-129.98-26.25c-39.76-16.82-75.47-40.89-106.13-71.55-30.66-30.66-54.73-66.37-71.55-106.13-17.42-41.18-26.25-84.91-26.25-129.98s8.83-88.8,26.25-129.98c16.82-39.76,40.89-75.47,71.55-106.13,30.66-30.66,66.37-54.73,106.13-71.55,41.18-17.42,84.91-26.25,129.98-26.25s88.8,8.83,129.98,26.25c39.76,16.82,75.47,40.89,106.13,71.55,10.35,10.35,14.78,14.55,18.5,19.37,8.67,11.22,6.01,27.45-5.69,35.46h0c-10.44,7.15-24.55,5.23-32.81-4.36-60.53-70.37-154.76-110.95-257.4-96.46-124.66,17.59-223.18,116.09-240.82,240.74-24.83,175.47,111.34,326.41,282.1,326.41,150.14,0,273.53-116.68,284.29-264.12h0s-25.6,0-25.6,0c-9.79,0-15.91-10.6-11.02-19.08l32.24-55.85,18.54-32.11c4.9-8.48,17.14-8.48,22.03,0l3.99,6.91,46.8,81.05c4.9,8.48-1.22,19.08-11.02,19.08Z"/>
  <rect class="cls-4" x="189.39" y="416.14" width="29.67" height="46.21" rx="12" ry="12" transform="translate(-235.02 643.47) rotate(-90)"/>
  <rect class="cls-4" x="657.78" y="416.14" width="29.67" height="46.21" rx="12" ry="12" transform="translate(233.38 1111.86) rotate(-90)"/>
  <path class="cls-2" d="M613.31,438.37c0,9.46-7.74,17.19-17.19,17.19h-118.51c-6.84,13.83-21.09,23.35-37.57,23.35-23.13,0-41.89-18.75-41.89-41.88,0-17.26,10.45-32.09,25.37-38.49v-130.89c0-9.45,7.74-17.19,17.19-17.19s17.19,7.74,17.19,17.19v131.49c9.44,4.46,16.95,12.34,20.91,22.04h117.31c9.45,0,17.19,7.74,17.19,17.19Z"/>
</svg>